# xmcd
#
# Track frame offsets:
#	150
#	11967
#	22950
#	37131
#	49933
#	62549
#	75296
#	90095
#	101886
#	113741
#	126091
#	138514
#	150084
#	164931
#	175938
#	190629
#	202796
#	217362
#	229267
#	241686
#
# Disc length: 3386 seconds
#
# Revision: 1
# Processed by: cddbd v1.5.2PL0 Copyright (c) Steve Scherf et al.
# Submitted via: audiograbber 1.83.01
#
DISCID=050d3814
DTITLE=AUTRY GENE [2006] CD1 - COUNTRY MUSIC LEGENDS [AUTRY 1]
DYEAR=2006
DGENRE=Country
TTITLE0=BACK IN THE SADDLE AGAIN
TTITLE1=YOU ARE MY SUNSHINE
TTITLE2=MEXICALI ROSE
TTITLE3=SOUTH OF THE BORDER [DOWN MEXICO WAY]
TTITLE4=HAVE I TOLD YOU LATELY THAT I LOVE YOU?
TTITLE5=GOODBYE LITTLE DARLIN', GOODBYE
TTITLE6=TUMBLIN' TUMBLEWEEDS
TTITLE7=BLUEBERRY HILL
TTITLE8=DEAD OLD WESTERN SKIES
TTITLE9=IT MAKES NO DIFFERENCE NOW
TTITLE10=DEEP IN THE HEART OF TEXAS
TTITLE11=DON'T FENCE ME IN
TTITLE12=GHOST RIDERS IN THE CITY
TTITLE13=RED RIVER VALLEY
TTITLE14=THE LAST ROUND UP
TTITLE15=YOU 'RE THE ONLY STAR [IN MY BLUE HEAVEN]
TTITLE16=BLUE CANADIAN ROCKIES
TTITLE17=DIXIE CANNONBALL
TTITLE18=COWBOY BLUES
TTITLE19=I'LL NEVER LET YOU GO
EXTD=
EXTT0=
EXTT1=
EXTT2=
EXTT3=
EXTT4=
EXTT5=
EXTT6=
EXTT7=
EXTT8=
EXTT9=
EXTT10=
EXTT11=
EXTT12=
EXTT13=
EXTT14=
EXTT15=
EXTT16=
EXTT17=
EXTT18=
EXTT19=
PLAYORDER=
